<svg xmlns="http://www.w3.org/2000/svg" viewBox="0 0 1200 720" font-family="ui-sans-serif, -apple-system, Helvetica, Arial">
  <rect width="1200" height="720" fill="#0b1220"/>
  <!-- Sidebar -->
  <rect width="220" height="720" fill="#0f172a"/>
  <text x="24" y="44" fill="#e2e8f0" font-size="17" font-weight="700">⚡ AI Release Manager</text>
  <rect x="12" y="72" width="196" height="36" rx="8" fill="#1d4ed8" opacity="0.25"/>
  <text x="28" y="95" fill="#93c5fd" font-size="14" font-weight="600">Dashboard</text>
  <text x="28" y="135" fill="#94a3b8" font-size="14">Repositories</text>
  <text x="28" y="175" fill="#94a3b8" font-size="14">Releases</text>
  <text x="28" y="215" fill="#94a3b8" font-size="14">Settings</text>
  <!-- Topbar -->
  <rect x="220" width="980" height="56" fill="#0f172a"/>
  <text x="248" y="34" fill="#e2e8f0" font-size="16" font-weight="600">Dashboard</text>
  <text x="1050" y="34" fill="#64748b" font-size="13">dev@acme.com · Logout</text>
  <!-- Stat cards -->
  <g>
    <rect x="248" y="80" width="172" height="84" rx="10" fill="#111c33" stroke="#1e293b"/>
    <text x="264" y="108" fill="#64748b" font-size="11">TOTAL RELEASES</text>
    <text x="264" y="142" fill="#e2e8f0" font-size="26" font-weight="700">47</text>
    <rect x="436" y="80" width="172" height="84" rx="10" fill="#111c33" stroke="#1e293b"/>
    <text x="452" y="108" fill="#64748b" font-size="11">COMMITS ANALYZED</text>
    <text x="452" y="142" fill="#e2e8f0" font-size="26" font-weight="700">1,284</text>
    <rect x="624" y="80" width="172" height="84" rx="10" fill="#111c33" stroke="#1e293b"/>
    <text x="640" y="108" fill="#64748b" font-size="11">ISSUES ANALYZED</text>
    <text x="640" y="142" fill="#e2e8f0" font-size="26" font-weight="700">312</text>
    <rect x="812" y="80" width="172" height="84" rx="10" fill="#111c33" stroke="#1e293b"/>
    <text x="828" y="108" fill="#64748b" font-size="11">SLACK PUBLICATIONS</text>
    <text x="828" y="142" fill="#e2e8f0" font-size="26" font-weight="700">38</text>
    <rect x="1000" y="80" width="172" height="84" rx="10" fill="#111c33" stroke="#1e293b"/>
    <text x="1016" y="108" fill="#64748b" font-size="11">HOURS SAVED</text>
    <text x="1016" y="142" fill="#34d399" font-size="26" font-weight="700">141 h</text>
  </g>
  <!-- Releases per week (bar chart) -->
  <rect x="248" y="188" width="452" height="240" rx="10" fill="#111c33" stroke="#1e293b"/>
  <text x="268" y="216" fill="#e2e8f0" font-size="13" font-weight="600">Releases per week</text>
  <g fill="#3b82f6">
    <rect x="290" y="350" width="34" height="54" rx="3"/>
    <rect x="340" y="320" width="34" height="84" rx="3"/>
    <rect x="390" y="368" width="34" height="36" rx="3"/>
    <rect x="440" y="300" width="34" height="104" rx="3"/>
    <rect x="490" y="280" width="34" height="124" rx="3"/>
    <rect x="540" y="332" width="34" height="72" rx="3"/>
    <rect x="590" y="262" width="34" height="142" rx="3"/>
  </g>
  <line x1="280" y1="404" x2="676" y2="404" stroke="#1e293b"/>
  <!-- Category donut -->
  <rect x="720" y="188" width="452" height="240" rx="10" fill="#111c33" stroke="#1e293b"/>
  <text x="740" y="216" fill="#e2e8f0" font-size="13" font-weight="600">Changes by category</text>
  <circle cx="840" cy="320" r="62" fill="none" stroke="#3b82f6" stroke-width="26" stroke-dasharray="160 230"/>
  <circle cx="840" cy="320" r="62" fill="none" stroke="#34d399" stroke-width="26" stroke-dasharray="95 295" stroke-dashoffset="-160"/>
  <circle cx="840" cy="320" r="62" fill="none" stroke="#fbbf24" stroke-width="26" stroke-dasharray="70 320" stroke-dashoffset="-255"/>
  <circle cx="840" cy="320" r="62" fill="none" stroke="#f87171" stroke-width="26" stroke-dasharray="65 325" stroke-dashoffset="-325"/>
  <g font-size="12" fill="#94a3b8">
    <circle cx="960" cy="280" r="5" fill="#3b82f6"/><text x="974" y="285">Features (41%)</text>
    <circle cx="960" cy="308" r="5" fill="#34d399"/><text x="974" y="313">Bug Fixes (24%)</text>
    <circle cx="960" cy="336" r="5" fill="#fbbf24"/><text x="974" y="341">Performance (18%)</text>
    <circle cx="960" cy="364" r="5" fill="#f87171"/><text x="974" y="369">Security (17%)</text>
  </g>
  <!-- Recent releases -->
  <rect x="248" y="452" width="924" height="240" rx="10" fill="#111c33" stroke="#1e293b"/>
  <text x="268" y="482" fill="#e2e8f0" font-size="13" font-weight="600">Recent releases</text>
  <g font-size="13">
    <text x="268" y="520" fill="#e2e8f0">payments-service v2.4.0</text>
    <text x="600" y="520" fill="#64748b">v2.3.0 → v2.4.0 · 84 commits</text>
    <rect x="1010" y="504" width="84" height="22" rx="11" fill="#7c3aed" opacity="0.25"/>
    <text x="1024" y="520" fill="#c4b5fd" font-size="11">published</text>
    <text x="268" y="558" fill="#e2e8f0">web-app v1.18.0</text>
    <text x="600" y="558" fill="#64748b">Last 30 days · 142 commits</text>
    <rect x="1010" y="542" width="84" height="22" rx="11" fill="#16a34a" opacity="0.25"/>
    <text x="1022" y="558" fill="#86efac" font-size="11">completed</text>
    <text x="268" y="596" fill="#e2e8f0">infra-tooling v0.9.2</text>
    <text x="600" y="596" fill="#64748b">Last sprint · 31 commits</text>
    <rect x="1010" y="580" width="84" height="22" rx="11" fill="#2563eb" opacity="0.25"/>
    <text x="1030" y="596" fill="#93c5fd" font-size="11">running</text>
    <text x="268" y="634" fill="#e2e8f0">mobile-api v3.1.0</text>
    <text x="600" y="634" fill="#64748b">v3.0.0 → v3.1.0 · 56 commits</text>
    <rect x="1010" y="618" width="84" height="22" rx="11" fill="#dc2626" opacity="0.25"/>
    <text x="1034" y="634" fill="#fca5a5" font-size="11">failed</text>
  </g>
</svg>
