<svg xmlns="http://www.w3.org/2000/svg" viewBox="0 0 1200 720" font-family="ui-sans-serif, -apple-system, Helvetica, Arial">
  <rect width="1200" height="720" fill="#0b1220"/>
  <rect width="220" height="720" fill="#0f172a"/>
  <text x="24" y="44" fill="#e2e8f0" font-size="17" font-weight="700">⚡ AI Release Manager</text>
  <text x="28" y="95" fill="#94a3b8" font-size="14">Dashboard</text>
  <text x="28" y="135" fill="#94a3b8" font-size="14">Repositories</text>
  <rect x="12" y="152" width="196" height="36" rx="8" fill="#1d4ed8" opacity="0.25"/>
  <text x="28" y="175" fill="#93c5fd" font-size="14" font-weight="600">Releases</text>
  <text x="28" y="215" fill="#94a3b8" font-size="14">Settings</text>
  <!-- Header -->
  <text x="248" y="56" fill="#e2e8f0" font-size="22" font-weight="700">payments-service v2.4.0</text>
  <text x="248" y="82" fill="#64748b" font-size="13">v2.3.0 → v2.4.0 · generated in 94s · 84 commits · 12 issues · 19 MRs</text>
  <rect x="700" y="36" width="84" height="24" rx="12" fill="#7c3aed" opacity="0.25"/>
  <text x="714" y="53" fill="#c4b5fd" font-size="12">published</text>
  <rect x="796" y="36" width="110" height="24" rx="12" fill="#f59e0b" opacity="0.2"/>
  <text x="808" y="53" fill="#fcd34d" font-size="12">risk: MEDIUM</text>
  <!-- Tabs -->
  <g font-size="13">
    <rect x="248" y="104" width="100" height="34" rx="8" fill="#1e293b"/>
    <text x="266" y="126" fill="#e2e8f0" font-weight="600">Executive</text>
    <text x="376" y="126" fill="#64748b">Technical</text>
    <text x="470" y="126" fill="#64748b">Markdown</text>
    <text x="568" y="126" fill="#64748b">Slack</text>
  </g>
  <!-- Notes panel -->
  <rect x="248" y="152" width="640" height="380" rx="10" fill="#111c33" stroke="#1e293b"/>
  <text x="272" y="190" fill="#e2e8f0" font-size="16" font-weight="700">Highlights</text>
  <g fill="#94a3b8" font-size="13">
    <text x="272" y="222">• Payment retries with exponential backoff reduce failed</text>
    <text x="272" y="242">  charges during provider outages.</text>
    <text x="272" y="272">• Checkout latency cut by 38% after caching the pricing</text>
    <text x="272" y="292">  catalog.</text>
    <text x="272" y="322">• Two customer-reported invoice crashes fixed.</text>
  </g>
  <text x="272" y="366" fill="#e2e8f0" font-size="16" font-weight="700">Business outcomes</text>
  <g fill="#94a3b8" font-size="13">
    <text x="272" y="396">Fewer abandoned checkouts, faster invoicing, and a</text>
    <text x="272" y="416">hardened payment pipeline ahead of the Q3 campaign.</text>
  </g>
  <!-- QA card -->
  <rect x="912" y="152" width="260" height="180" rx="10" fill="#111c33" stroke="#1e293b"/>
  <text x="932" y="182" fill="#e2e8f0" font-size="13" font-weight="600">QA Review</text>
  <circle cx="944" cy="212" r="6" fill="#34d399"/>
  <text x="960" y="217" fill="#86efac" font-size="13">Approved</text>
  <text x="932" y="250" fill="#64748b" font-size="12">Traceability score</text>
  <rect x="932" y="260" width="220" height="8" rx="4" fill="#1e293b"/>
  <rect x="932" y="260" width="211" height="8" rx="4" fill="#34d399"/>
  <text x="932" y="290" fill="#e2e8f0" font-size="13" font-weight="600">0.96</text>
  <text x="932" y="316" fill="#64748b" font-size="12">0 hallucinations · 1 revision</text>
  <!-- Slack card -->
  <rect x="912" y="352" width="260" height="180" rx="10" fill="#111c33" stroke="#1e293b"/>
  <text x="932" y="382" fill="#e2e8f0" font-size="13" font-weight="600">Slack publication</text>
  <text x="932" y="412" fill="#94a3b8" font-size="13">#releases · Acme Corp</text>
  <text x="932" y="438" fill="#60a5fa" font-size="12">slack.com/archives/C04…/p17</text>
  <rect x="932" y="460" width="120" height="32" rx="8" fill="#2563eb"/>
  <text x="952" y="481" fill="#ffffff" font-size="13">Republish</text>
  <!-- Sources -->
  <rect x="248" y="556" width="924" height="136" rx="10" fill="#111c33" stroke="#1e293b"/>
  <text x="272" y="588" fill="#e2e8f0" font-size="13" font-weight="600">Source data</text>
  <g font-size="13" fill="#94a3b8">
    <text x="272" y="622">▸ Commits (84)</text>
    <text x="272" y="652">▸ Issues (12)</text>
    <text x="272" y="682">▸ Merge requests (19)</text>
    <text x="560" y="622" fill="#64748b">abc1234 feat: add payment retries — Ana</text>
    <text x="560" y="652" fill="#64748b">#10 Invoice crashes on null amount — closed</text>
    <text x="560" y="682" fill="#64748b">!42 Add payment retries — merged</text>
  </g>
</svg>
